<svg width="27" height="24" viewBox="0 0 27 24" fill="none" xmlns="http://www.w3.org/2000/svg">
<path d="M0 0L3.57143 3.57143L7.7486e-05 7.14286" transform="translate(20.5713 2)" stroke="black" stroke-width="3"/>
<path d="M0 0L3.57143 3.57143L7.7486e-05 7.14286" transform="translate(20.5713 14.8572)" stroke="black" stroke-width="3"/>
<path d="M0 12.3214C5.03247 12.3214 10.0649 9.91071 11.5747 6.16059C13.0844 2.41047 17.1104 7.37802e-05 22.1429 0" transform="translate(0.571289 18.4285) scale(1 -1)" stroke="black" stroke-width="4"/>
<path fill-rule="evenodd" clip-rule="evenodd" d="M22.1431 4C19.2583 4 16.9155 4.88867 15.3193 6.28589C14.4653 5.53833 13.8252 4.64478 13.4302 3.66406C13.3286 3.41235 13.2163 3.16724 13.0933 2.92822C15.4746 1.03613 18.6689 0 22.1431 0V4ZM13.0933 9.64331C11.9321 8.7207 10.9639 7.59473 10.251 6.28589C10.0537 6.64795 9.87598 7.02393 9.71924 7.41357C9.68506 7.49829 9.64844 7.58276 9.6084 7.66675C10.7573 8.46265 11.7734 9.43262 12.5425 10.5715C12.7437 10.2737 12.9277 9.96436 13.0933 9.64331ZM9.6084 13.4763C9.09961 12.4043 8.12012 11.3911 6.73145 10.5715C6.55762 10.6741 6.37744 10.7737 6.19092 10.8701C4.41309 11.7878 2.21338 12.3215 0 12.3215V16.3215C2.81885 16.3215 5.65186 15.6497 8.02588 14.4246C8.57275 14.1423 9.10352 13.8262 9.6084 13.4763Z" transform="translate(0.571289 3.57129)" fill="black"/>
</svg>
